<?xml version="1.0" encoding="UTF-8"?>
<svg xmlns="http://www.w3.org/2000/svg" viewBox="0 0 1600 360" width="1600" height="360" role="img" aria-labelledby="title desc" fill="none" preserveAspectRatio="xMidYMid meet">
  <title id="title">Terminal Commander horizontal signal-funnel logo</title>
  <desc id="desc">A transparent SVG logo for Terminal Commander: noisy terminal output enters a funnel icon and structured signal events exit into the wordmark.</desc>
  <defs>
    <linearGradient id="panelGradient" x1="64" y1="80" x2="510" y2="300" gradientUnits="userSpaceOnUse">
      <stop offset="0" stop-color="#0F1A24"/>
      <stop offset="0.54" stop-color="#0A121A"/>
      <stop offset="1" stop-color="#122231"/>
    </linearGradient>
    <linearGradient id="cyanGradient" x1="0" y1="0" x2="1" y2="1">
      <stop offset="0" stop-color="#13D3E5"/>
      <stop offset="1" stop-color="#028EB2"/>
    </linearGradient>
    <filter id="cyanGlow" x="-35%" y="-35%" width="170%" height="170%" color-interpolation-filters="sRGB">
      <feDropShadow dx="0" dy="0" stdDeviation="3.5" flood-color="#05BFE0" flood-opacity="0.36"/>
    </filter>
    <filter id="softShadow" x="-20%" y="-20%" width="140%" height="140%" color-interpolation-filters="sRGB">
      <feDropShadow dx="0" dy="8" stdDeviation="10" flood-color="#071018" flood-opacity="0.18"/>
    </filter>
    <style><![CDATA[
    .primary{fill:#101923}
    .primary-stroke{stroke:#101923}
    .panel-fill{fill:url(#panelGradient)}
    .muted{fill:#667887}
    .muted-stroke{stroke:#667887}
    .accent{fill:#04A9C7}
    .accent-stroke{stroke:#04A9C7}
    .soft{fill:#9CA9B5}
    .soft-stroke{stroke:#9CA9B5}
    @media (prefers-color-scheme: dark){
      .primary{fill:#E7F1F7}
      .primary-stroke{stroke:#E7F1F7}
      .muted{fill:#9AAEBD}
      .muted-stroke{stroke:#9AAEBD}
      .soft{fill:#AAB7C4}
      .soft-stroke{stroke:#AAB7C4}
    }
    ]]></style>
  </defs>

  <g id="terminal-commander-logo-signal">
    <g id="signal-funnel-icon" filter="url(#softShadow)">
      <clipPath id="panelClip"><path d="M76 74 H332 C350 74 363 80 378 94 L455 159 C466 168 477 172 493 176 L520 183 V217 L493 224 C477 228 466 232 455 241 L378 306 C363 320 350 326 332 326 H76 C48 326 32 308 32 281 V119 C32 92 48 74 76 74 Z"/></clipPath>
      <path d="M76 74 H332 C350 74 363 80 378 94 L455 159 C466 168 477 172 493 176 L520 183 V217 L493 224 C477 228 466 232 455 241 L378 306 C363 320 350 326 332 326 H76 C48 326 32 308 32 281 V119 C32 92 48 74 76 74 Z" class="panel-fill" stroke="url(#cyanGradient)" stroke-width="4"/>
      <path d="M76 84 H332 C345 84 354 88 365 98 L447 169 C459 180 465 183 485 188" stroke="#6AE8F5" stroke-width="2" opacity="0.24"/>
      <g clip-path="url(#panelClip)"><circle cx="72" cy="104" r="7" class="soft" opacity="0.8"/><circle cx="94" cy="104" r="7" class="soft" opacity="0.8"/><circle cx="116" cy="104" r="7" class="soft" opacity="0.8"/><line x1="56" y1="126" x2="306" y2="126" class="soft-stroke" stroke-width="5" opacity="0.28" stroke-linecap="round"/><path d="M76 154 L112 178 L76 202" stroke="#F8FBFC" stroke-width="14" stroke-linecap="round" stroke-linejoin="round"/><line x1="121" y1="202" x2="164" y2="202" stroke="#F8FBFC" stroke-width="10" stroke-linecap="round"/><line x1="245" y1="156" x2="269" y2="156" class="soft-stroke" stroke-width="6" opacity="0.42" stroke-linecap="round"/><line x1="282" y1="156" x2="326" y2="156" class="soft-stroke" stroke-width="6" opacity="0.35" stroke-linecap="round"/><line x1="331" y1="156" x2="368" y2="156" class="soft-stroke" stroke-width="6" opacity="0.48" stroke-linecap="round"/><circle cx="380" cy="156" r="4" class="soft" opacity="0.55"/><line x1="190" y1="181" x2="214" y2="181" class="soft-stroke" stroke-width="6" opacity="0.42" stroke-linecap="round"/><line x1="235" y1="181" x2="279" y2="181" class="soft-stroke" stroke-width="6" opacity="0.35" stroke-linecap="round"/><line x1="302" y1="181" x2="339" y2="181" class="soft-stroke" stroke-width="6" opacity="0.48" stroke-linecap="round"/><circle cx="390" cy="181" r="4" class="soft" opacity="0.55"/><line x1="72" y1="207" x2="96" y2="207" class="soft-stroke" stroke-width="6" opacity="0.42" stroke-linecap="round"/><line x1="143" y1="207" x2="187" y2="207" class="soft-stroke" stroke-width="6" opacity="0.35" stroke-linecap="round"/><line x1="238" y1="207" x2="275" y2="207" class="soft-stroke" stroke-width="6" opacity="0.48" stroke-linecap="round"/><circle cx="351" cy="207" r="4" class="soft" opacity="0.55"/><line x1="72" y1="234" x2="96" y2="234" class="soft-stroke" stroke-width="6" opacity="0.42" stroke-linecap="round"/><line x1="151" y1="234" x2="195" y2="234" class="soft-stroke" stroke-width="6" opacity="0.35" stroke-linecap="round"/><line x1="236" y1="234" x2="273" y2="234" class="soft-stroke" stroke-width="6" opacity="0.48" stroke-linecap="round"/><circle cx="354" cy="234" r="4" class="soft" opacity="0.55"/><line x1="72" y1="262" x2="96" y2="262" class="soft-stroke" stroke-width="6" opacity="0.42" stroke-linecap="round"/><line x1="150" y1="262" x2="194" y2="262" class="soft-stroke" stroke-width="6" opacity="0.35" stroke-linecap="round"/><line x1="235" y1="262" x2="272" y2="262" class="soft-stroke" stroke-width="6" opacity="0.48" stroke-linecap="round"/><circle cx="354" cy="262" r="4" class="soft" opacity="0.55"/><line x1="72" y1="288" x2="96" y2="288" class="soft-stroke" stroke-width="6" opacity="0.42" stroke-linecap="round"/><line x1="147" y1="288" x2="191" y2="288" class="soft-stroke" stroke-width="6" opacity="0.35" stroke-linecap="round"/><line x1="237" y1="288" x2="274" y2="288" class="soft-stroke" stroke-width="6" opacity="0.48" stroke-linecap="round"/><circle cx="352" cy="288" r="4" class="soft" opacity="0.55"/><path d="M70 220 H86 L95 228 V243 H70 Z" class="soft-stroke" stroke-width="3" opacity="0.35" stroke-linejoin="round"/><path d="M140 220 H156 L165 228 V243 H140 Z" class="soft-stroke" stroke-width="3" opacity="0.35" stroke-linejoin="round"/><path d="M255 220 H271 L280 228 V243 H255 Z" class="soft-stroke" stroke-width="3" opacity="0.35" stroke-linejoin="round"/><path d="M329 220 H345 L354 228 V243 H329 Z" class="soft-stroke" stroke-width="3" opacity="0.35" stroke-linejoin="round"/><path d="M70 247 H86 L95 255 V270 H70 Z" class="soft-stroke" stroke-width="3" opacity="0.35" stroke-linejoin="round"/><path d="M140 247 H156 L165 255 V270 H140 Z" class="soft-stroke" stroke-width="3" opacity="0.35" stroke-linejoin="round"/><path d="M255 247 H271 L280 255 V270 H255 Z" class="soft-stroke" stroke-width="3" opacity="0.35" stroke-linejoin="round"/><path d="M329 247 H345 L354 255 V270 H329 Z" class="soft-stroke" stroke-width="3" opacity="0.35" stroke-linejoin="round"/><path d="M140 276 H156 L165 284 V299 H140 Z" class="soft-stroke" stroke-width="3" opacity="0.35" stroke-linejoin="round"/><path d="M329 276 H345 L354 284 V299 H329 Z" class="soft-stroke" stroke-width="3" opacity="0.35" stroke-linejoin="round"/><circle cx="318" cy="154" r="4.2" fill="#04A9C7" opacity="0.35"/><circle cx="345" cy="154" r="4.3" fill="#04A9C7" opacity="0.42"/><circle cx="378" cy="154" r="4.6" fill="#04A9C7" opacity="0.55"/><circle cx="413" cy="154" r="5.0" fill="#04A9C7" opacity="0.75"/><circle cx="445" cy="154" r="5.3" fill="#04A9C7" opacity="0.9"/><circle cx="306" cy="180" r="4.0" fill="#04A9C7" opacity="0.25"/><circle cx="333" cy="180" r="4.3" fill="#04A9C7" opacity="0.38"/><circle cx="360" cy="180" r="4.5" fill="#04A9C7" opacity="0.52"/><circle cx="390" cy="180" r="4.9" fill="#04A9C7" opacity="0.68"/><circle cx="421" cy="180" r="5.3" fill="#04A9C7" opacity="0.88"/><circle cx="454" cy="180" r="5.5" fill="#04A9C7" opacity="1"/><circle cx="300" cy="207" r="4.1" fill="#04A9C7" opacity="0.28"/><circle cx="330" cy="207" r="4.3" fill="#04A9C7" opacity="0.42"/><circle cx="359" cy="207" r="4.6" fill="#04A9C7" opacity="0.54"/><circle cx="388" cy="207" r="4.8" fill="#04A9C7" opacity="0.66"/><circle cx="418" cy="207" r="5.2" fill="#04A9C7" opacity="0.85"/><circle cx="450" cy="207" r="5.5" fill="#04A9C7" opacity="1"/><circle cx="302" cy="234" r="3.9" fill="#04A9C7" opacity="0.22"/><circle cx="334" cy="234" r="4.2" fill="#04A9C7" opacity="0.34"/><circle cx="360" cy="234" r="4.5" fill="#04A9C7" opacity="0.52"/><circle cx="391" cy="234" r="4.8" fill="#04A9C7" opacity="0.65"/><circle cx="421" cy="234" r="5.1" fill="#04A9C7" opacity="0.82"/><circle cx="300" cy="262" r="3.9" fill="#04A9C7" opacity="0.22"/><circle cx="334" cy="262" r="4.2" fill="#04A9C7" opacity="0.33"/><circle cx="360" cy="262" r="4.4" fill="#04A9C7" opacity="0.45"/><circle cx="390" cy="262" r="4.7" fill="#04A9C7" opacity="0.6"/><line x1="465" y1="186" x2="520" y2="186" stroke="url(#cyanGradient)" stroke-width="8" opacity="0.9" stroke-linecap="round"/><line x1="465" y1="200" x2="520" y2="200" stroke="url(#cyanGradient)" stroke-width="5" opacity="0.65" stroke-linecap="round"/><line x1="465" y1="214" x2="520" y2="214" stroke="url(#cyanGradient)" stroke-width="8" opacity="0.9" stroke-linecap="round"/></g>
      <path d="M520 183 H579 C593 183 597 171 607 171 H629" stroke="url(#cyanGradient)" stroke-width="9" stroke-linecap="round" stroke-linejoin="round" filter="url(#cyanGlow)"/>
      <path d="M520 200 H636" stroke="url(#cyanGradient)" stroke-width="9" stroke-linecap="round" filter="url(#cyanGlow)"/>
      <path d="M520 217 H579 C593 217 597 229 607 229 H629" stroke="url(#cyanGradient)" stroke-width="9" stroke-linecap="round" stroke-linejoin="round" filter="url(#cyanGlow)"/>
      <circle cx="642" cy="171" r="15" fill="#0E1A23" stroke="url(#cyanGradient)" stroke-width="7" filter="url(#cyanGlow)"/>
      <circle cx="650" cy="200" r="15" fill="#0E1A23" stroke="url(#cyanGradient)" stroke-width="7" filter="url(#cyanGlow)"/>
      <circle cx="642" cy="229" r="15" fill="#0E1A23" stroke="url(#cyanGradient)" stroke-width="7" filter="url(#cyanGlow)"/>
    </g>
    <g id="wordmark">
      <path class="primary" d="M668.22 115.25 L668.22 166 L655.54 166 L655.54 115.25 L635.99 115.25 L635.99 105.46 L687.81 105.46 L687.81 115.25 L668.22 115.25 Z M707.44 166.87 Q696.96 166.87 691.33 160.65 Q685.7 154.44 685.7 142.54 Q685.7 131.02 691.41 124.83 Q697.13 118.65 707.62 118.65 Q717.63 118.65 722.91 125.29 Q728.2 131.93 728.2 144.73 L728.2 145.07 L698.38 145.07 Q698.38 151.87 700.9 155.33 Q703.41 158.78 708.05 158.78 Q714.45 158.78 716.13 153.24 L727.52 154.23 Q722.57 166.87 707.44 166.87 Z M707.44 126.25 Q703.19 126.25 700.9 129.22 Q698.6 132.19 698.46 137.51 L716.52 137.51 Q716.17 131.89 713.81 129.07 Q711.44 126.25 707.44 126.25 Z M737.35 166 L737.35 130.41 Q737.35 126.59 737.24 124.03 Q737.13 121.48 737.01 119.51 L748.52 119.51 Q748.65 120.28 748.86 124.21 Q749.08 128.15 749.08 129.44 L749.26 129.44 Q751.02 124.53 752.39 122.54 Q753.77 120.54 755.65 119.58 Q757.55 118.6 760.38 118.6 Q762.71 118.6 764.12 119.25 L764.12 129.34 Q761.19 128.7 758.97 128.7 Q754.46 128.7 751.94 132.35 Q749.42 136.01 749.42 143.19 L749.42 166 L737.35 166 Z M798.97 166 L798.97 139.92 Q798.97 127.66 791.92 127.66 Q788.26 127.66 785.97 131.41 Q783.67 135.15 783.67 141.07 L783.67 166 L771.6 166 L771.6 129.91 Q771.6 126.17 771.49 123.79 Q771.38 121.4 771.25 119.51 L782.76 119.51 Q782.9 120.32 783.11 123.87 Q783.33 127.42 783.33 128.75 L783.51 128.75 Q785.73 123.42 789.06 121.01 Q792.39 118.6 797.04 118.6 Q807.69 118.6 809.97 128.75 L810.22 128.75 Q812.59 123.33 815.89 120.97 Q819.2 118.6 824.32 118.6 Q831.11 118.6 834.67 123.22 Q838.24 127.84 838.24 136.48 L838.24 166 L826.25 166 L826.25 139.92 Q826.25 127.66 819.2 127.66 Q815.68 127.66 813.43 131.09 Q811.17 134.5 810.95 140.52 L810.95 166 L798.97 166 Z M849.84 111.12 L849.84 102.23 L861.92 102.23 L861.92 111.12 L849.84 111.12 Z M849.84 166 L849.84 119.51 L861.92 119.51 L861.92 166 L849.84 166 Z M904.42 166 L904.42 139.92 Q904.42 127.66 896.11 127.66 Q891.74 127.66 889.05 131.43 Q886.37 135.19 886.37 141.07 L886.37 166 L874.29 166 L874.29 129.91 Q874.29 126.17 874.18 123.79 Q874.07 121.4 873.95 119.51 L885.46 119.51 Q885.6 120.32 885.8 123.87 Q886.02 127.42 886.02 128.75 L886.2 128.75 Q888.65 123.42 892.33 121.01 Q896.03 118.6 901.15 118.6 Q908.54 118.6 912.49 123.17 Q916.45 127.72 916.45 136.48 L916.45 166 L904.42 166 Z M938.79 166.87 Q932.05 166.87 928.27 163.19 Q924.49 159.51 924.49 152.85 Q924.49 145.64 929.19 141.85 Q933.89 138.07 942.83 137.98 L952.84 137.81 L952.84 135.45 Q952.84 130.9 951.24 128.68 Q949.66 126.47 946.05 126.47 Q942.7 126.47 941.12 128 Q939.56 129.52 939.17 133.04 L926.59 132.44 Q927.74 125.66 932.79 122.15 Q937.84 118.65 946.57 118.65 Q955.37 118.65 960.14 122.99 Q964.91 127.32 964.91 135.32 L964.91 152.25 Q964.91 156.16 965.79 157.64 Q966.67 159.12 968.73 159.12 Q970.11 159.12 971.4 158.86 L971.4 165.4 Q970.33 165.66 969.46 165.88 Q968.61 166.08 967.74 166.21 Q966.89 166.34 965.91 166.43 Q964.95 166.52 963.67 166.52 Q959.11 166.52 956.94 164.28 Q954.78 162.04 954.34 157.71 L954.09 157.71 Q949.02 166.87 938.79 166.87 Z M952.84 144.47 L946.65 144.56 Q942.44 144.73 940.68 145.49 Q938.92 146.23 937.99 147.78 Q937.07 149.32 937.07 151.91 Q937.07 155.22 938.59 156.83 Q940.12 158.44 942.65 158.44 Q945.5 158.44 947.83 156.9 Q950.17 155.34 951.5 152.62 Q952.84 149.88 952.84 146.83 L952.84 144.47 Z M976.99 166 L976.99 102.23 L989.06 102.23 L989.06 166 L976.99 166 Z"/>
      <path class="accent" d="M1040.23 156.88 Q1051.71 156.88 1056.18 145.38 L1067.22 149.54 Q1063.66 158.31 1056.75 162.59 Q1049.85 166.87 1040.23 166.87 Q1025.62 166.87 1017.65 158.59 Q1009.69 150.31 1009.69 135.45 Q1009.69 120.54 1017.37 112.55 Q1025.06 104.55 1039.68 104.55 Q1050.33 104.55 1057.03 108.83 Q1063.74 113.1 1066.45 121.4 L1055.27 124.45 Q1053.85 119.9 1049.7 117.22 Q1045.56 114.52 1039.94 114.52 Q1031.34 114.52 1026.89 119.85 Q1022.45 125.18 1022.45 135.45 Q1022.45 145.88 1027.01 151.38 Q1031.59 156.88 1040.23 156.88 Z M1119.93 142.71 Q1119.93 154.01 1113.66 160.44 Q1107.39 166.87 1096.31 166.87 Q1085.43 166.87 1079.25 160.42 Q1073.06 153.97 1073.06 142.71 Q1073.06 131.5 1079.25 125.08 Q1085.43 118.65 1096.56 118.65 Q1107.96 118.65 1113.94 124.86 Q1119.93 131.06 1119.93 142.71 Z M1107.31 142.71 Q1107.31 134.42 1104.6 130.68 Q1101.89 126.94 1096.74 126.94 Q1085.74 126.94 1085.74 142.71 Q1085.74 150.49 1088.42 154.55 Q1091.11 158.6 1096.17 158.6 Q1107.31 158.6 1107.31 142.71 Z M1156.9 166 L1156.9 139.92 Q1156.9 127.66 1149.84 127.66 Q1146.19 127.66 1143.89 131.41 Q1141.59 135.15 1141.59 141.07 L1141.59 166 L1129.52 166 L1129.52 129.91 Q1129.52 126.17 1129.41 123.79 Q1129.3 121.4 1129.18 119.51 L1140.69 119.51 Q1140.82 120.32 1141.03 123.87 Q1141.25 127.42 1141.25 128.75 L1141.43 128.75 Q1143.66 123.42 1146.98 121.01 Q1150.31 118.6 1154.96 118.6 Q1165.62 118.6 1167.9 128.75 L1168.15 128.75 Q1170.51 123.33 1173.81 120.97 Q1177.12 118.6 1182.24 118.6 Q1189.03 118.6 1192.59 123.22 Q1196.17 127.84 1196.17 136.48 L1196.17 166 L1184.18 166 L1184.18 139.92 Q1184.18 127.66 1177.12 127.66 Q1173.6 127.66 1171.35 131.09 Q1169.09 134.5 1168.87 140.52 L1168.87 166 L1156.9 166 Z M1235.14 166 L1235.14 139.92 Q1235.14 127.66 1228.09 127.66 Q1224.43 127.66 1222.14 131.41 Q1219.84 135.15 1219.84 141.07 L1219.84 166 L1207.77 166 L1207.77 129.91 Q1207.77 126.17 1207.66 123.79 Q1207.55 121.4 1207.42 119.51 L1218.93 119.51 Q1219.07 120.32 1219.28 123.87 Q1219.5 127.42 1219.5 128.75 L1219.68 128.75 Q1221.9 123.42 1225.23 121.01 Q1228.56 118.6 1233.21 118.6 Q1243.86 118.6 1246.14 128.75 L1246.39 128.75 Q1248.76 123.33 1252.06 120.97 Q1255.37 118.6 1260.49 118.6 Q1267.28 118.6 1270.84 123.22 Q1274.41 127.84 1274.41 136.48 L1274.41 166 L1262.42 166 L1262.42 139.92 Q1262.42 127.66 1255.37 127.66 Q1251.85 127.66 1249.6 131.09 Q1247.34 134.5 1247.12 140.52 L1247.12 166 L1235.14 166 Z M1296.75 166.87 Q1290.02 166.87 1286.23 163.19 Q1282.45 159.51 1282.45 152.85 Q1282.45 145.64 1287.16 141.85 Q1291.86 138.07 1300.8 137.98 L1310.81 137.81 L1310.81 135.45 Q1310.81 130.9 1309.21 128.68 Q1307.63 126.47 1304.01 126.47 Q1300.67 126.47 1299.09 128 Q1297.52 129.52 1297.14 133.04 L1284.56 132.44 Q1285.71 125.66 1290.76 122.15 Q1295.8 118.65 1304.54 118.65 Q1313.34 118.65 1318.11 122.99 Q1322.88 127.32 1322.88 135.32 L1322.88 152.25 Q1322.88 156.16 1323.76 157.64 Q1324.64 159.12 1326.7 159.12 Q1328.08 159.12 1329.37 158.86 L1329.37 165.4 Q1328.3 165.66 1327.43 165.88 Q1326.58 166.08 1325.71 166.21 Q1324.86 166.34 1323.88 166.43 Q1322.92 166.52 1321.64 166.52 Q1317.08 166.52 1314.9 164.28 Q1312.74 162.04 1312.3 157.71 L1312.06 157.71 Q1306.98 166.87 1296.75 166.87 Z M1310.81 144.47 L1304.62 144.56 Q1300.41 144.73 1298.65 145.49 Q1296.89 146.23 1295.96 147.78 Q1295.03 149.32 1295.03 151.91 Q1295.03 155.22 1296.56 156.83 Q1298.09 158.44 1300.62 158.44 Q1303.46 158.44 1305.8 156.9 Q1308.14 155.34 1309.47 152.62 Q1310.81 149.88 1310.81 146.83 L1310.81 144.47 Z M1365.08 166 L1365.08 139.92 Q1365.08 127.66 1356.78 127.66 Q1352.4 127.66 1349.71 131.43 Q1347.03 135.19 1347.03 141.07 L1347.03 166 L1334.96 166 L1334.96 129.91 Q1334.96 126.17 1334.85 123.79 Q1334.74 121.4 1334.61 119.51 L1346.12 119.51 Q1346.26 120.32 1346.46 123.87 Q1346.68 127.42 1346.68 128.75 L1346.86 128.75 Q1349.31 123.42 1353 121.01 Q1356.69 118.6 1361.81 118.6 Q1369.21 118.6 1373.15 123.17 Q1377.11 127.72 1377.11 136.48 L1377.11 166 L1365.08 166 Z M1418.84 166 Q1418.66 165.35 1418.42 162.75 Q1418.19 160.16 1418.19 158.44 L1418.01 158.44 Q1414.11 166.87 1403.15 166.87 Q1395.02 166.87 1390.59 160.53 Q1386.18 154.19 1386.18 142.79 Q1386.18 131.24 1390.84 124.94 Q1395.5 118.65 1404.05 118.65 Q1408.99 118.65 1412.58 120.71 Q1416.17 122.77 1418.09 126.85 L1418.19 126.85 L1418.09 119.21 L1418.09 102.23 L1430.18 102.23 L1430.18 155.85 Q1430.18 160.16 1430.52 166 L1418.84 166 Z M1418.27 142.5 Q1418.27 134.98 1415.76 130.92 Q1413.24 126.85 1408.34 126.85 Q1403.49 126.85 1401.13 130.79 Q1398.76 134.72 1398.76 142.79 Q1398.76 158.6 1408.26 158.6 Q1413.03 158.6 1415.65 154.42 Q1418.27 150.23 1418.27 142.5 Z M1461.49 166.87 Q1451.02 166.87 1445.38 160.65 Q1439.75 154.44 1439.75 142.54 Q1439.75 131.02 1445.46 124.83 Q1451.18 118.65 1461.67 118.65 Q1471.68 118.65 1476.96 125.29 Q1482.26 131.93 1482.26 144.73 L1482.26 145.07 L1452.43 145.07 Q1452.43 151.87 1454.95 155.33 Q1457.46 158.78 1462.1 158.78 Q1468.51 158.78 1470.18 153.24 L1481.57 154.23 Q1476.62 166.87 1461.49 166.87 Z M1461.49 126.25 Q1457.24 126.25 1454.95 129.22 Q1452.65 132.19 1452.51 137.51 L1470.57 137.51 Q1470.22 131.89 1467.86 129.07 Q1465.49 126.25 1461.49 126.25 Z M1491.4 166 L1491.4 130.41 Q1491.4 126.59 1491.29 124.03 Q1491.18 121.48 1491.06 119.51 L1502.57 119.51 Q1502.71 120.28 1502.91 124.21 Q1503.13 128.15 1503.13 129.44 L1503.31 129.44 Q1505.07 124.53 1506.45 122.54 Q1507.82 120.54 1509.71 119.58 Q1511.6 118.6 1514.44 118.6 Q1516.76 118.6 1518.18 119.25 L1518.18 129.34 Q1515.25 128.7 1513.02 128.7 Q1508.51 128.7 1505.99 132.35 Q1503.48 136.01 1503.48 143.19 L1503.48 166 L1491.4 166 Z"/>
      <path class="muted" opacity="0.9" d="M895.35 222.08 L895.35 230.18 L908.73 230.18 L908.73 234.41 L895.35 234.41 L895.35 244 L889.88 244 L889.88 217.86 L909.16 217.86 L909.16 222.08 L895.35 222.08 Z M918.12 223.93 L918.12 235.19 Q918.12 240.47 921.68 240.47 Q923.58 240.47 924.74 238.85 Q925.89 237.23 925.89 234.68 L925.89 223.93 L931.11 223.93 L931.11 239.51 Q931.11 242.07 931.26 244 L926.28 244 Q926.07 241.33 926.07 240.01 L925.97 240.01 Q924.93 242.29 923.32 243.34 Q921.72 244.37 919.51 244.37 Q916.32 244.37 914.61 242.41 Q912.91 240.46 912.91 236.67 L912.91 223.93 L918.12 223.93 Z M936.42 244 L936.42 216.46 L941.63 216.46 L941.63 244 L936.42 244 Z M946.97 244 L946.97 216.46 L952.19 216.46 L952.19 244 L946.97 244 Z M985.01 238.13 Q985.01 241.05 982.62 242.71 Q980.24 244.37 976.03 244.37 Q971.9 244.37 969.69 243.07 Q967.5 241.76 966.77 238.99 L971.35 238.31 Q971.75 239.73 972.7 240.32 Q973.65 240.92 976.03 240.92 Q978.22 240.92 979.22 240.37 Q980.23 239.81 980.23 238.62 Q980.23 237.65 979.42 237.09 Q978.61 236.52 976.68 236.13 Q972.26 235.26 970.72 234.51 Q969.18 233.76 968.37 232.56 Q967.57 231.37 967.57 229.62 Q967.57 226.75 969.78 225.14 Q972 223.53 976.07 223.53 Q979.65 223.53 981.83 224.93 Q984.01 226.32 984.55 228.95 L979.93 229.44 Q979.7 228.21 978.83 227.61 Q977.96 227 976.07 227 Q974.21 227 973.28 227.48 Q972.36 227.95 972.36 229.06 Q972.36 229.93 973.07 230.44 Q973.78 230.96 975.48 231.29 Q977.83 231.77 979.66 232.29 Q981.48 232.79 982.59 233.5 Q983.69 234.2 984.35 235.31 Q985.01 236.41 985.01 238.13 Z M989.22 220.3 L989.22 216.46 L994.44 216.46 L994.44 220.3 L989.22 220.3 Z M989.22 244 L989.22 223.93 L994.44 223.93 L994.44 244 L989.22 244 Z M1008.19 252.05 Q1004.51 252.05 1002.27 250.65 Q1000.04 249.25 999.52 246.65 L1004.73 246.04 Q1005.01 247.25 1005.93 247.93 Q1006.85 248.62 1008.34 248.62 Q1010.5 248.62 1011.51 247.28 Q1012.51 245.95 1012.51 243.31 L1012.51 242.25 L1012.55 240.27 L1012.51 240.27 Q1010.78 243.96 1006.05 243.96 Q1002.55 243.96 1000.62 241.33 Q998.69 238.69 998.69 233.79 Q998.69 228.88 1000.67 226.21 Q1002.65 223.53 1006.44 223.53 Q1010.82 223.53 1012.51 227.15 L1012.6 227.15 Q1012.6 226.5 1012.68 225.39 Q1012.77 224.28 1012.86 223.93 L1017.79 223.93 Q1017.69 225.93 1017.69 228.56 L1017.69 243.39 Q1017.69 247.68 1015.25 249.86 Q1012.83 252.05 1008.19 252.05 Z M1012.55 233.68 Q1012.55 230.59 1011.44 228.85 Q1010.34 227.11 1008.29 227.11 Q1004.12 227.11 1004.12 233.79 Q1004.12 240.34 1008.26 240.34 Q1010.34 240.34 1011.44 238.61 Q1012.55 236.88 1012.55 233.68 Z M1036 244 L1036 232.74 Q1036 227.45 1032.42 227.45 Q1030.53 227.45 1029.36 229.07 Q1028.21 230.69 1028.21 233.24 L1028.21 244 L1022.99 244 L1022.99 228.41 Q1022.99 226.8 1022.95 225.77 Q1022.9 224.74 1022.84 223.93 L1027.81 223.93 Q1027.87 224.28 1027.96 225.81 Q1028.06 227.34 1028.06 227.92 L1028.13 227.92 Q1029.19 225.61 1030.78 224.57 Q1032.38 223.53 1034.59 223.53 Q1037.78 223.53 1039.49 225.5 Q1041.2 227.47 1041.2 231.25 L1041.2 244 L1036 244 Z M1050.84 244.37 Q1047.93 244.37 1046.3 242.79 Q1044.67 241.2 1044.67 238.32 Q1044.67 235.21 1046.7 233.57 Q1048.73 231.94 1052.59 231.9 L1056.91 231.83 L1056.91 230.81 Q1056.91 228.84 1056.22 227.89 Q1055.54 226.93 1053.98 226.93 Q1052.53 226.93 1051.85 227.59 Q1051.17 228.25 1051.01 229.77 L1045.58 229.51 Q1046.07 226.58 1048.25 225.07 Q1050.43 223.55 1054.2 223.55 Q1058 223.55 1060.06 225.43 Q1062.12 227.3 1062.12 230.75 L1062.12 238.06 Q1062.12 239.75 1062.5 240.39 Q1062.88 241.03 1063.77 241.03 Q1064.37 241.03 1064.93 240.92 L1064.93 243.74 Q1064.46 243.85 1064.09 243.95 Q1063.72 244.04 1063.35 244.09 Q1062.98 244.15 1062.56 244.18 Q1062.14 244.23 1061.59 244.23 Q1059.62 244.23 1058.68 243.26 Q1057.75 242.29 1057.56 240.42 L1057.45 240.42 Q1055.26 244.37 1050.84 244.37 Z M1056.91 234.7 L1054.24 234.74 Q1052.42 234.81 1051.66 235.14 Q1050.9 235.46 1050.5 236.13 Q1050.1 236.8 1050.1 237.91 Q1050.1 239.34 1050.76 240.04 Q1051.42 240.73 1052.51 240.73 Q1053.74 240.73 1054.75 240.07 Q1055.76 239.4 1056.33 238.22 Q1056.91 237.04 1056.91 235.72 L1056.91 234.7 Z M1067.34 244 L1067.34 216.46 L1072.55 216.46 L1072.55 244 L1067.34 244 Z M1077.82 244 L1077.82 238.34 L1083.19 238.34 L1083.19 244 L1077.82 244 Z M1114.82 244 L1103.43 223.87 Q1103.76 226.8 1103.76 228.58 L1103.76 244 L1098.9 244 L1098.9 217.86 L1105.15 217.86 L1116.71 238.16 Q1116.38 235.35 1116.38 233.05 L1116.38 217.86 L1121.24 217.86 L1121.24 244 L1114.82 244 Z M1145.52 233.94 Q1145.52 238.82 1142.82 241.6 Q1140.11 244.37 1135.32 244.37 Q1130.63 244.37 1127.96 241.59 Q1125.28 238.8 1125.28 233.94 Q1125.28 229.1 1127.96 226.33 Q1130.63 223.55 1135.43 223.55 Q1140.35 223.55 1142.94 226.24 Q1145.52 228.91 1145.52 233.94 Z M1140.07 233.94 Q1140.07 230.36 1138.9 228.75 Q1137.73 227.13 1135.51 227.13 Q1130.76 227.13 1130.76 233.94 Q1130.76 237.3 1131.92 239.05 Q1133.08 240.81 1135.26 240.81 Q1140.07 240.81 1140.07 233.94 Z M1173.23 244 L1173.23 232.74 Q1173.23 227.45 1169.65 227.45 Q1167.76 227.45 1166.59 229.07 Q1165.44 230.69 1165.44 233.24 L1165.44 244 L1160.22 244 L1160.22 228.41 Q1160.22 226.8 1160.18 225.77 Q1160.13 224.74 1160.07 223.93 L1165.04 223.93 Q1165.1 224.28 1165.19 225.81 Q1165.29 227.34 1165.29 227.92 L1165.36 227.92 Q1166.42 225.61 1168.01 224.57 Q1169.61 223.53 1171.82 223.53 Q1175.01 223.53 1176.72 225.5 Q1178.43 227.47 1178.43 231.25 L1178.43 244 L1173.23 244 Z M1202.51 233.94 Q1202.51 238.82 1199.8 241.6 Q1197.09 244.37 1192.31 244.37 Q1187.61 244.37 1184.94 241.59 Q1182.27 238.8 1182.27 233.94 Q1182.27 229.1 1184.94 226.33 Q1187.61 223.55 1192.41 223.55 Q1197.33 223.55 1199.92 226.24 Q1202.51 228.91 1202.51 233.94 Z M1197.06 233.94 Q1197.06 230.36 1195.89 228.75 Q1194.72 227.13 1192.49 227.13 Q1187.74 227.13 1187.74 233.94 Q1187.74 237.3 1188.9 239.05 Q1190.06 240.81 1192.25 240.81 Q1197.06 240.81 1197.06 233.94 Z M1206.65 220.3 L1206.65 216.46 L1211.86 216.46 L1211.86 220.3 L1206.65 220.3 Z M1206.65 244 L1206.65 223.93 L1211.86 223.93 L1211.86 244 L1206.65 244 Z M1234.13 238.13 Q1234.13 241.05 1231.74 242.71 Q1229.36 244.37 1225.14 244.37 Q1221.01 244.37 1218.81 243.07 Q1216.61 241.76 1215.89 238.99 L1220.47 238.31 Q1220.86 239.73 1221.81 240.32 Q1222.77 240.92 1225.14 240.92 Q1227.33 240.92 1228.34 240.37 Q1229.34 239.81 1229.34 238.62 Q1229.34 237.65 1228.53 237.09 Q1227.73 236.52 1225.8 236.13 Q1221.38 235.26 1219.83 234.51 Q1218.3 233.76 1217.49 232.56 Q1216.68 231.37 1216.68 229.62 Q1216.68 226.75 1218.9 225.14 Q1221.12 223.53 1225.18 223.53 Q1228.76 223.53 1230.94 224.93 Q1233.12 226.32 1233.66 228.95 L1229.04 229.44 Q1228.82 228.21 1227.95 227.61 Q1227.07 227 1225.18 227 Q1223.33 227 1222.4 227.48 Q1221.47 227.95 1221.47 229.06 Q1221.47 229.93 1222.19 230.44 Q1222.9 230.96 1224.59 231.29 Q1226.95 231.77 1228.77 232.29 Q1230.6 232.79 1231.7 233.5 Q1232.81 234.2 1233.47 235.31 Q1234.13 236.41 1234.13 238.13 Z M1246.56 244.37 Q1242.03 244.37 1239.6 241.69 Q1237.17 239.01 1237.17 233.87 Q1237.17 228.9 1239.63 226.22 Q1242.1 223.55 1246.63 223.55 Q1250.96 223.55 1253.24 226.42 Q1255.52 229.29 1255.52 234.81 L1255.52 234.96 L1242.64 234.96 Q1242.64 237.9 1243.73 239.39 Q1244.82 240.88 1246.82 240.88 Q1249.58 240.88 1250.31 238.49 L1255.22 238.92 Q1253.09 244.37 1246.56 244.37 Z M1246.56 226.83 Q1244.72 226.83 1243.73 228.12 Q1242.74 229.4 1242.68 231.7 L1250.47 231.7 Q1250.33 229.27 1249.3 228.05 Q1248.28 226.83 1246.56 226.83 Z M1259.39 244 L1259.39 238.34 L1264.76 238.34 L1264.76 244 L1259.39 244 Z"/>
      <line x1="815.34" y1="229" x2="859.34" y2="229" class="accent-stroke" stroke-width="6" stroke-linecap="round"/>
      <line x1="1290.22" y1="229" x2="1334.22" y2="229" class="accent-stroke" stroke-width="6" stroke-linecap="round"/>
    </g>
  </g>
</svg>
